<mxfile host="app.diagrams.net" agent="Mozilla/5.0 (Macintosh; Intel Mac OS X 10_15_7) AppleWebKit/537.36 (KHTML, like Gecko) Chrome/127.0.0.0 Safari/537.36" version="24.7.7">
  <diagram name="第 1 页" id="A9rHL_Slm2XhbdOv5Oo1">
    <mxGraphModel dx="1026" dy="651" grid="1" gridSize="10" guides="1" tooltips="1" connect="1" arrows="1" fold="1" page="1" pageScale="1" pageWidth="827" pageHeight="1169" math="0" shadow="0">
      <root>
        <mxCell id="0" />
        <mxCell id="1" parent="0" />
        <mxCell id="I5W7qzTJJJn9ER3g-bew-5" value="" style="edgeStyle=orthogonalEdgeStyle;rounded=0;orthogonalLoop=1;jettySize=auto;html=1;" edge="1" parent="1" source="I5W7qzTJJJn9ER3g-bew-1" target="I5W7qzTJJJn9ER3g-bew-4">
          <mxGeometry relative="1" as="geometry" />
        </mxCell>
        <mxCell id="I5W7qzTJJJn9ER3g-bew-1" value="下线接口" style="ellipse;whiteSpace=wrap;html=1;" vertex="1" parent="1">
          <mxGeometry x="300" y="100" width="100" height="60" as="geometry" />
        </mxCell>
        <mxCell id="I5W7qzTJJJn9ER3g-bew-10" value="" style="edgeStyle=orthogonalEdgeStyle;rounded=0;orthogonalLoop=1;jettySize=auto;html=1;" edge="1" parent="1" source="I5W7qzTJJJn9ER3g-bew-4" target="I5W7qzTJJJn9ER3g-bew-9">
          <mxGeometry relative="1" as="geometry" />
        </mxCell>
        <mxCell id="I5W7qzTJJJn9ER3g-bew-11" value="不通过" style="edgeLabel;html=1;align=center;verticalAlign=middle;resizable=0;points=[];" vertex="1" connectable="0" parent="I5W7qzTJJJn9ER3g-bew-10">
          <mxGeometry x="-0.3" y="3" relative="1" as="geometry">
            <mxPoint as="offset" />
          </mxGeometry>
        </mxCell>
        <mxCell id="I5W7qzTJJJn9ER3g-bew-13" value="" style="edgeStyle=orthogonalEdgeStyle;rounded=0;orthogonalLoop=1;jettySize=auto;html=1;" edge="1" parent="1" source="I5W7qzTJJJn9ER3g-bew-4" target="I5W7qzTJJJn9ER3g-bew-15">
          <mxGeometry relative="1" as="geometry">
            <mxPoint x="350" y="290" as="targetPoint" />
          </mxGeometry>
        </mxCell>
        <mxCell id="I5W7qzTJJJn9ER3g-bew-14" value="校验通过" style="edgeLabel;html=1;align=center;verticalAlign=middle;resizable=0;points=[];" vertex="1" connectable="0" parent="I5W7qzTJJJn9ER3g-bew-13">
          <mxGeometry x="-0.2857" y="-2" relative="1" as="geometry">
            <mxPoint as="offset" />
          </mxGeometry>
        </mxCell>
        <mxCell id="I5W7qzTJJJn9ER3g-bew-4" value="参数校验" style="rhombus;whiteSpace=wrap;html=1;" vertex="1" parent="1">
          <mxGeometry x="310" y="190" width="80" height="50" as="geometry" />
        </mxCell>
        <mxCell id="I5W7qzTJJJn9ER3g-bew-9" value="返回失败" style="rounded=0;whiteSpace=wrap;html=1;" vertex="1" parent="1">
          <mxGeometry x="170" y="192.5" width="80" height="45" as="geometry" />
        </mxCell>
        <mxCell id="I5W7qzTJJJn9ER3g-bew-17" value="" style="edgeStyle=orthogonalEdgeStyle;rounded=0;orthogonalLoop=1;jettySize=auto;html=1;" edge="1" parent="1" source="I5W7qzTJJJn9ER3g-bew-15" target="I5W7qzTJJJn9ER3g-bew-16">
          <mxGeometry relative="1" as="geometry" />
        </mxCell>
        <mxCell id="I5W7qzTJJJn9ER3g-bew-15" value="阿里云sdk查询服务当前状态" style="shape=process;whiteSpace=wrap;html=1;backgroundOutline=1;" vertex="1" parent="1">
          <mxGeometry x="290" y="290" width="120" height="50" as="geometry" />
        </mxCell>
        <mxCell id="I5W7qzTJJJn9ER3g-bew-19" value="" style="edgeStyle=orthogonalEdgeStyle;rounded=0;orthogonalLoop=1;jettySize=auto;html=1;" edge="1" parent="1" source="I5W7qzTJJJn9ER3g-bew-16" target="I5W7qzTJJJn9ER3g-bew-18">
          <mxGeometry relative="1" as="geometry" />
        </mxCell>
        <mxCell id="I5W7qzTJJJn9ER3g-bew-20" value="非运行" style="edgeLabel;html=1;align=center;verticalAlign=middle;resizable=0;points=[];" vertex="1" connectable="0" parent="I5W7qzTJJJn9ER3g-bew-19">
          <mxGeometry x="-0.12" y="2" relative="1" as="geometry">
            <mxPoint x="1" as="offset" />
          </mxGeometry>
        </mxCell>
        <mxCell id="I5W7qzTJJJn9ER3g-bew-22" value="" style="edgeStyle=orthogonalEdgeStyle;rounded=0;orthogonalLoop=1;jettySize=auto;html=1;" edge="1" parent="1" source="I5W7qzTJJJn9ER3g-bew-16" target="I5W7qzTJJJn9ER3g-bew-21">
          <mxGeometry relative="1" as="geometry" />
        </mxCell>
        <mxCell id="I5W7qzTJJJn9ER3g-bew-23" value="运行中" style="edgeLabel;html=1;align=center;verticalAlign=middle;resizable=0;points=[];" vertex="1" connectable="0" parent="I5W7qzTJJJn9ER3g-bew-22">
          <mxGeometry x="-0.075" y="1" relative="1" as="geometry">
            <mxPoint as="offset" />
          </mxGeometry>
        </mxCell>
        <mxCell id="I5W7qzTJJJn9ER3g-bew-16" value="服务是否&lt;div&gt;正常运行中&lt;/div&gt;" style="rhombus;whiteSpace=wrap;html=1;" vertex="1" parent="1">
          <mxGeometry x="292.5" y="380" width="115" height="60" as="geometry" />
        </mxCell>
        <mxCell id="I5W7qzTJJJn9ER3g-bew-18" value="返回已停止结果" style="rounded=0;whiteSpace=wrap;html=1;" vertex="1" parent="1">
          <mxGeometry x="130" y="385" width="100" height="50" as="geometry" />
        </mxCell>
        <mxCell id="I5W7qzTJJJn9ER3g-bew-25" value="" style="edgeStyle=orthogonalEdgeStyle;rounded=0;orthogonalLoop=1;jettySize=auto;html=1;" edge="1" parent="1" source="I5W7qzTJJJn9ER3g-bew-21" target="I5W7qzTJJJn9ER3g-bew-24">
          <mxGeometry relative="1" as="geometry" />
        </mxCell>
        <mxCell id="I5W7qzTJJJn9ER3g-bew-21" value="调用阿里云sdk触发服务停止" style="shape=process;whiteSpace=wrap;html=1;backgroundOutline=1;" vertex="1" parent="1">
          <mxGeometry x="290" y="500" width="120" height="60" as="geometry" />
        </mxCell>
        <mxCell id="I5W7qzTJJJn9ER3g-bew-27" value="" style="edgeStyle=orthogonalEdgeStyle;rounded=0;orthogonalLoop=1;jettySize=auto;html=1;" edge="1" parent="1" source="I5W7qzTJJJn9ER3g-bew-24" target="I5W7qzTJJJn9ER3g-bew-26">
          <mxGeometry relative="1" as="geometry" />
        </mxCell>
        <mxCell id="I5W7qzTJJJn9ER3g-bew-28" value="失败" style="edgeLabel;html=1;align=center;verticalAlign=middle;resizable=0;points=[];" vertex="1" connectable="0" parent="I5W7qzTJJJn9ER3g-bew-27">
          <mxGeometry x="0.12" y="3" relative="1" as="geometry">
            <mxPoint as="offset" />
          </mxGeometry>
        </mxCell>
        <mxCell id="I5W7qzTJJJn9ER3g-bew-30" value="成功" style="edgeStyle=orthogonalEdgeStyle;rounded=0;orthogonalLoop=1;jettySize=auto;html=1;" edge="1" parent="1" source="I5W7qzTJJJn9ER3g-bew-24" target="I5W7qzTJJJn9ER3g-bew-29">
          <mxGeometry relative="1" as="geometry" />
        </mxCell>
        <mxCell id="I5W7qzTJJJn9ER3g-bew-24" value="调用是否成功" style="rhombus;whiteSpace=wrap;html=1;" vertex="1" parent="1">
          <mxGeometry x="295" y="600" width="110" height="70" as="geometry" />
        </mxCell>
        <mxCell id="I5W7qzTJJJn9ER3g-bew-26" value="返回失败信息" style="whiteSpace=wrap;html=1;" vertex="1" parent="1">
          <mxGeometry x="130" y="607.5" width="100" height="55" as="geometry" />
        </mxCell>
        <mxCell id="I5W7qzTJJJn9ER3g-bew-29" value="返回接口成功" style="whiteSpace=wrap;html=1;" vertex="1" parent="1">
          <mxGeometry x="290" y="755" width="120" height="35" as="geometry" />
        </mxCell>
        <mxCell id="I5W7qzTJJJn9ER3g-bew-31" value="" style="endArrow=none;dashed=1;html=1;dashPattern=1 3;strokeWidth=2;rounded=0;" edge="1" parent="1">
          <mxGeometry width="50" height="50" relative="1" as="geometry">
            <mxPoint x="350" y="700" as="sourcePoint" />
            <mxPoint x="530" y="700" as="targetPoint" />
          </mxGeometry>
        </mxCell>
        <mxCell id="I5W7qzTJJJn9ER3g-bew-32" value="异步逻辑" style="edgeLabel;html=1;align=center;verticalAlign=middle;resizable=0;points=[];" vertex="1" connectable="0" parent="I5W7qzTJJJn9ER3g-bew-31">
          <mxGeometry x="0.2111" relative="1" as="geometry">
            <mxPoint as="offset" />
          </mxGeometry>
        </mxCell>
        <mxCell id="I5W7qzTJJJn9ER3g-bew-36" value="" style="edgeStyle=orthogonalEdgeStyle;rounded=0;orthogonalLoop=1;jettySize=auto;html=1;" edge="1" parent="1" source="I5W7qzTJJJn9ER3g-bew-34" target="I5W7qzTJJJn9ER3g-bew-35">
          <mxGeometry relative="1" as="geometry" />
        </mxCell>
        <mxCell id="I5W7qzTJJJn9ER3g-bew-34" value="调用阿里云sdk查询服务当前信息" style="shape=process;whiteSpace=wrap;html=1;backgroundOutline=1;" vertex="1" parent="1">
          <mxGeometry x="530" y="670" width="120" height="60" as="geometry" />
        </mxCell>
        <mxCell id="I5W7qzTJJJn9ER3g-bew-40" value="" style="edgeStyle=orthogonalEdgeStyle;rounded=0;orthogonalLoop=1;jettySize=auto;html=1;" edge="1" parent="1" source="I5W7qzTJJJn9ER3g-bew-35" target="I5W7qzTJJJn9ER3g-bew-39">
          <mxGeometry relative="1" as="geometry" />
        </mxCell>
        <mxCell id="I5W7qzTJJJn9ER3g-bew-41" value="" style="edgeStyle=orthogonalEdgeStyle;rounded=0;orthogonalLoop=1;jettySize=auto;html=1;" edge="1" parent="1" source="I5W7qzTJJJn9ER3g-bew-35" target="I5W7qzTJJJn9ER3g-bew-39">
          <mxGeometry relative="1" as="geometry" />
        </mxCell>
        <mxCell id="I5W7qzTJJJn9ER3g-bew-43" value="已停止" style="edgeLabel;html=1;align=center;verticalAlign=middle;resizable=0;points=[];" vertex="1" connectable="0" parent="I5W7qzTJJJn9ER3g-bew-41">
          <mxGeometry x="0.3667" y="-2" relative="1" as="geometry">
            <mxPoint as="offset" />
          </mxGeometry>
        </mxCell>
        <mxCell id="I5W7qzTJJJn9ER3g-bew-35" value="服务是否已停止" style="rhombus;whiteSpace=wrap;html=1;" vertex="1" parent="1">
          <mxGeometry x="535" y="780" width="110" height="80" as="geometry" />
        </mxCell>
        <mxCell id="I5W7qzTJJJn9ER3g-bew-37" value="" style="curved=1;endArrow=classic;html=1;rounded=0;exitX=0.945;exitY=0.488;exitDx=0;exitDy=0;exitPerimeter=0;entryX=1;entryY=0.5;entryDx=0;entryDy=0;" edge="1" parent="1" source="I5W7qzTJJJn9ER3g-bew-35" target="I5W7qzTJJJn9ER3g-bew-34">
          <mxGeometry width="50" height="50" relative="1" as="geometry">
            <mxPoint x="660" y="810" as="sourcePoint" />
            <mxPoint x="710" y="760" as="targetPoint" />
            <Array as="points">
              <mxPoint x="710" y="810" />
              <mxPoint x="690" y="740" />
            </Array>
          </mxGeometry>
        </mxCell>
        <mxCell id="I5W7qzTJJJn9ER3g-bew-38" value="未停止" style="edgeLabel;html=1;align=center;verticalAlign=middle;resizable=0;points=[];" vertex="1" connectable="0" parent="I5W7qzTJJJn9ER3g-bew-37">
          <mxGeometry x="-0.0714" y="3" relative="1" as="geometry">
            <mxPoint as="offset" />
          </mxGeometry>
        </mxCell>
        <mxCell id="I5W7qzTJJJn9ER3g-bew-39" value="更改mysql数据&lt;div&gt;库对应服务信息&lt;/div&gt;" style="shape=step;perimeter=stepPerimeter;whiteSpace=wrap;html=1;fixedSize=1;" vertex="1" parent="1">
          <mxGeometry x="525" y="920" width="130" height="60" as="geometry" />
        </mxCell>
        <mxCell id="I5W7qzTJJJn9ER3g-bew-44" value="&lt;b&gt;考虑告警&lt;/b&gt;" style="rounded=0;whiteSpace=wrap;html=1;" vertex="1" parent="1">
          <mxGeometry x="700" y="860" width="100" height="40" as="geometry" />
        </mxCell>
        <mxCell id="I5W7qzTJJJn9ER3g-bew-45" value="" style="endArrow=classic;html=1;rounded=0;" edge="1" parent="1" target="I5W7qzTJJJn9ER3g-bew-44">
          <mxGeometry width="50" height="50" relative="1" as="geometry">
            <mxPoint x="590" y="880" as="sourcePoint" />
            <mxPoint x="670" y="850" as="targetPoint" />
          </mxGeometry>
        </mxCell>
        <mxCell id="I5W7qzTJJJn9ER3g-bew-46" value="超出轮询限制" style="edgeLabel;html=1;align=center;verticalAlign=middle;resizable=0;points=[];" vertex="1" connectable="0" parent="I5W7qzTJJJn9ER3g-bew-45">
          <mxGeometry x="-0.1273" relative="1" as="geometry">
            <mxPoint as="offset" />
          </mxGeometry>
        </mxCell>
      </root>
    </mxGraphModel>
  </diagram>
</mxfile>
